<svg width="81" height="79" viewBox="0 0 81 79" fill="none" xmlns="http://www.w3.org/2000/svg">
<circle cx="39.5" cy="39.5" r="39.5" fill="#D1EBFF"/>
<path fill-rule="evenodd" clip-rule="evenodd" d="M20.3609 48.9253C20.9168 48.7587 21.373 48.3923 21.646 47.8914C21.646 47.8914 23.7709 43.9641 23.7736 43.961C24.3269 42.9365 23.9185 41.5964 22.8823 41.0515C21.8544 40.5097 20.4958 40.8958 19.9362 41.9317L17.8133 45.8549C17.2479 46.9012 17.6479 48.207 18.7062 48.766C19.2133 49.0369 19.803 49.0924 20.3609 48.9253ZM68 35.716L61.922 20.2146L57.1959 22.7167C54.8105 23.9436 52.5348 23.0219 50.3311 22.1323C47.3105 20.9116 44.1881 19.6489 39.6715 22.7369C38.7271 23.3826 37.7691 24.1865 36.8273 25.128C34.6887 27.2674 32.0361 29.2879 28.9315 31.15C32.1348 34.6061 35.559 33.2359 39.4768 31.6664C41.5399 30.8417 43.6496 29.9968 45.6974 29.9968C46.7557 29.9968 47.7978 30.2216 48.8099 30.792L60.3688 37.3054C60.8769 37.5925 61.309 37.962 61.657 38.3881L68 35.716ZM59.2155 39.3091C60.267 39.9013 60.6585 41.216 60.089 42.2395C59.5315 43.2422 58.1677 43.6647 57.1456 43.0938C57.1357 43.0886 48.8593 38.4658 48.8593 38.4658C48.2981 38.1528 47.5868 38.349 47.2703 38.9038C46.9527 39.4581 47.1506 40.1609 47.7118 40.4754C47.7118 40.4754 54.8159 44.4474 54.8448 44.4629C55.8963 45.0479 56.2848 46.362 55.7126 47.3901C55.1346 48.4297 53.8086 48.8102 52.7571 48.2387L43.7316 43.2521C43.1689 42.9396 42.4591 43.1358 42.1426 43.6907C41.8261 44.2455 42.0256 44.9487 42.5873 45.2617L49.7219 49.2332C50.7734 49.8165 51.1619 51.1296 50.5891 52.1603C50.0122 53.1999 48.6857 53.5804 47.6347 53.0073L42.5627 50.2343C42.1968 49.8004 41.7474 49.4376 41.2309 49.1646C40.1726 48.6057 38.9537 48.4873 37.7998 48.8335C37.7263 48.8543 37.6534 48.8792 37.5825 48.9041C37.5631 48.8288 37.5426 48.7551 37.519 48.6799C37.1683 47.538 36.3924 46.6033 35.3368 46.0485C34.2785 45.4874 33.0601 45.3701 31.9057 45.7168C31.8312 45.7386 31.7598 45.762 31.6884 45.7874C31.669 45.7132 31.649 45.6379 31.6259 45.5632C31.2747 44.4214 30.4989 43.4866 29.4438 42.9303C28.4542 42.4066 27.3555 42.2893 26.3402 42.5136C26.3103 42.2234 26.2515 41.9343 26.1638 41.6484C25.8131 40.5076 25.0373 39.5718 23.9816 39.0155C22.9239 38.456 21.7044 38.3382 20.5506 38.6839C19.7894 38.9117 19.1206 39.3228 18.5899 39.8745C18.3405 38.5614 17.9284 36.9135 16.2108 36.256C15.6328 36.0333 12.848 34.798 10.8284 33.8981C10.4736 33.7398 10.2258 33.4772 10.0909 33.116C9.95596 32.7548 9.97119 32.3961 10.1371 32.0474L15.9593 19.7951C16.2853 19.1085 17.1158 18.809 17.8124 19.1272L23.1353 21.5556C25.4587 22.8266 27.7359 22.2951 29.9376 21.7803C32.2148 21.2488 34.3856 20.7407 36.9484 21.8929C36.352 22.3834 35.7593 22.9216 35.1735 23.506C32.9151 25.7621 30.0301 27.8906 26.5979 29.8354C26.3103 29.9984 26.1071 30.2734 26.0368 30.5931C25.968 30.9123 26.0399 31.2471 26.2336 31.5123C30.7414 37.6522 36.0717 35.5179 40.3564 33.8042C43.2075 32.6608 45.6716 31.6753 47.6585 32.7958L59.2155 39.3091ZM45.5509 54.5063L45.5347 54.498L43.5976 53.4439C43.5514 54.0506 43.3771 54.6459 43.08 55.1987L41.8773 57.419L43.4564 58.2785C44.5084 58.8489 45.8338 58.4684 46.4108 57.4289C46.9887 56.3929 46.6014 55.0808 45.5509 54.5063ZM38.988 57.8715L41.0233 54.1102C41.5745 53.0909 41.1676 51.7431 40.133 51.2002C39.0904 50.6506 37.7434 51.0507 37.1869 52.0805L35.1516 55.8427C34.5863 56.8885 34.9863 58.1948 36.0446 58.7538C37.085 59.3039 38.4322 58.8987 38.988 57.8715ZM32.8035 55.2916L35.1285 50.9931C35.6844 49.9654 35.2776 48.629 34.2382 48.082C33.1977 47.5339 31.847 47.9356 31.2921 48.9638L28.9676 53.2617C28.4002 54.308 28.8012 55.6139 29.8595 56.1734C30.8806 56.7147 32.2601 56.2958 32.8035 55.2916ZM26.3586 53.1921C25.8027 54.2182 24.453 54.6251 23.4137 54.0739C22.3758 53.5243 21.9648 52.1915 22.5218 51.1623L25.4022 45.8384C25.9618 44.8139 27.3015 44.4147 28.3436 44.9664C29.3825 45.513 29.7899 46.85 29.235 47.8759C29.2329 47.8791 26.3586 53.1921 26.3586 53.1921Z" fill="#005FB2"/>
<circle cx="11" cy="5" r="2.6" stroke="#4A8EDD" stroke-width="0.8"/>
<circle cx="70" cy="72" r="2.6" stroke="#4A8EDD" stroke-width="0.8"/>
<circle cx="71.5" cy="11.5" r="1.5" fill="#3F8CE3"/>
<line x1="10.4" y1="69" x2="10.4" y2="74" stroke="#3782D7" stroke-width="0.8"/>
<line x1="13" y1="71.4" x2="8" y2="71.4" stroke="#3782D7" stroke-width="0.8"/>
<line x1="76.5059" y1="18.2798" x2="79.6515" y2="22.1664" stroke="#3782D7" stroke-width="0.8"/>
<line x1="79.8184" y1="18.2828" x2="76.2828" y2="21.8184" stroke="#3782D7" stroke-width="0.8"/>
</svg>
