<svg width="81" height="79" viewBox="0 0 81 79" fill="none" xmlns="http://www.w3.org/2000/svg">
<circle cx="39.5" cy="39.5" r="39.5" fill="#D6EDFF"/>
<path d="M28.4902 26H68.2476V45.5737H28.4902V26Z" fill="#005FB2"/>
<path d="M21.7097 47.8875C19.4747 47.8875 17.6631 49.7038 17.6631 51.9448C17.6631 54.1858 19.4747 56 21.7097 56C23.9439 56 25.7573 54.1832 25.7573 51.9448C25.7568 49.7038 23.9439 47.8875 21.7097 47.8875ZM21.7097 53.7075C20.7392 53.7075 19.9512 52.9179 19.9512 51.9448C19.9512 50.9704 20.7401 50.1817 21.7097 50.1817C22.6807 50.1817 23.4682 50.9713 23.4682 51.9448C23.4682 52.9179 22.6802 53.7075 21.7097 53.7075Z" fill="#005FB2"/>
<path d="M26.8468 31.8583H19.6136C17.445 31.8583 15.6362 31.9787 14.7933 34.0326C13.9495 36.0875 12.0215 41.4058 12.0215 41.4058V48.0936H10.7538V52.4259H16.4565C16.4412 52.2668 16.4322 52.1068 16.4322 51.9463C16.4322 49.0253 18.794 46.6558 21.7096 46.6558C24.6243 46.6558 26.9862 49.0252 26.9862 51.9463C26.9862 52.1068 26.9772 52.2668 26.9628 52.4259H33.2513L35.8748 50.0371H42.1973C42.694 48.7544 43.6731 47.7114 44.9183 47.1417H26.8475L26.8468 31.8583ZM24.2576 37.9668L21.1379 40.8488H14.3622C14.7933 39.6697 15.8227 36.8671 16.3388 35.6119C16.9991 34.001 18.4178 33.9068 20.118 33.9068H24.2577L24.2576 37.9668ZM52.0318 50.0371H54.2066C54.7033 48.7521 55.6837 47.7091 56.9276 47.139L49.3104 47.1395C50.5534 47.7114 51.5338 48.7517 52.0318 50.0371V50.0371ZM61.3213 47.1395C62.5638 47.7119 63.546 48.7517 64.0427 50.0376L68.7538 50.0371V47.139L61.3213 47.1395Z" fill="#005FB2"/>
<path d="M47.1136 47.8875C44.8795 47.8875 43.0665 49.7038 43.0665 51.9448C43.0665 54.1858 44.8795 56 47.1136 56C49.3501 56 51.1621 54.1832 51.1621 51.9448C51.1621 49.7038 49.3501 47.8875 47.1136 47.8875ZM47.1136 53.7075C46.1431 53.7075 45.3551 52.9179 45.3551 51.9448C45.3551 50.9704 46.1463 50.1817 47.1136 50.1817C48.0855 50.1817 48.8721 50.9713 48.8721 51.9448C48.8726 52.9179 48.0855 53.7075 47.1136 53.7075Z" fill="#005FB2"/>
<path d="M59.1251 47.8875C56.8887 47.8875 55.0762 49.7038 55.0762 51.9448C55.0762 54.1858 56.8891 56 59.1251 56C61.3592 56 63.1695 54.1832 63.1695 51.9448C63.1695 49.7038 61.3584 47.8875 59.1251 47.8875ZM59.1251 53.7075C58.1532 53.7075 57.3666 52.9179 57.3666 51.9448C57.3666 50.9704 58.1569 50.1817 59.1251 50.1817C60.0956 50.1817 60.8836 50.9713 60.8836 51.9448C60.8818 52.9179 60.0947 53.7075 59.1251 53.7075Z" fill="#005FB2"/>
<circle cx="11" cy="5" r="2.6" stroke="#4A8EDD" stroke-width="0.8"/>
<circle cx="70" cy="72" r="2.6" stroke="#4A8EDD" stroke-width="0.8"/>
<circle cx="71.5" cy="11.5" r="1.5" fill="#3F8CE3"/>
<line x1="10.4" y1="69" x2="10.4" y2="74" stroke="#3782D7" stroke-width="0.8"/>
<line x1="13" y1="71.4" x2="8" y2="71.4" stroke="#3782D7" stroke-width="0.8"/>
<line x1="76.5059" y1="18.2798" x2="79.6515" y2="22.1664" stroke="#3782D7" stroke-width="0.8"/>
<line x1="79.8184" y1="18.2828" x2="76.2828" y2="21.8184" stroke="#3782D7" stroke-width="0.8"/>
</svg>
